<svg xmlns="http://www.w3.org/2000/svg" xmlns:xlink="http://www.w3.org/1999/xlink" viewBox="0 0 1242 2213.8"><defs><style>.cls-1{fill:none;}.cls-2{fill:#5f6060;}.cls-3{opacity:0.47;fill:url(#linear-gradient);}.cls-4,.cls-5{opacity:0.81;}.cls-4{fill:url(#linear-gradient-2);}.cls-5{fill:url(#linear-gradient-3);}.cls-6{opacity:0.6;fill:url(#linear-gradient-4);}.cls-7{opacity:0.15;fill:url(#linear-gradient-5);}.cls-8{opacity:0.35;fill:url(#linear-gradient-6);}.cls-9{opacity:0.19;fill:url(#linear-gradient-7);}.cls-10{opacity:0.06;}.cls-11{clip-path:url(#clip-path);}.cls-12{opacity:0.58;}.cls-13{clip-path:url(#clip-path-2);}.cls-14{opacity:0.77;}.cls-15{clip-path:url(#clip-path-3);}</style><linearGradient id="linear-gradient" x1="1208.42" y1="261.63" x2="113.53" y2="-178.62" gradientUnits="userSpaceOnUse"><stop offset="0" stop-color="#545554"/><stop offset="1" stop-color="#4b4b4c"/></linearGradient><linearGradient id="linear-gradient-2" x1="659.11" y1="343.56" x2="659.11" y2="32.95" gradientUnits="userSpaceOnUse"><stop offset="0" stop-color="#545554"/><stop offset="0.62" stop-color="#515251"/><stop offset="1" stop-color="#4b4b4c"/></linearGradient><linearGradient id="linear-gradient-3" x1="346.63" y1="1995.28" x2="898.78" y2="1124.49" gradientUnits="userSpaceOnUse"><stop offset="0" stop-color="#1a1b1b" stop-opacity="0.7"/><stop offset="0.27" stop-color="#4c4c4d"/><stop offset="0.35" stop-color="#4c4c4d" stop-opacity="0.95"/><stop offset="0.42" stop-color="#4c4d4d" stop-opacity="0.81"/><stop offset="0.5" stop-color="#4d4e4d" stop-opacity="0.56"/><stop offset="0.5" stop-color="#4d4e4d" stop-opacity="0.53"/><stop offset="0.64" stop-color="#3e3f3f" stop-opacity="0.67"/><stop offset="0.76" stop-color="#1a1b1b"/></linearGradient><linearGradient id="linear-gradient-4" x1="781.99" y1="2385.95" x2="567.1" y2="1814.93" gradientUnits="userSpaceOnUse"><stop offset="0.13" stop-color="#1a1b1b" stop-opacity="0.7"/><stop offset="0.59" stop-color="#4d4e4d" stop-opacity="0.53"/><stop offset="0.73" stop-color="#3e3f3f" stop-opacity="0.67"/><stop offset="0.85" stop-color="#1a1b1b"/></linearGradient><linearGradient id="linear-gradient-5" x1="803.07" y1="2377.58" x2="620.25" y2="1891.77" gradientUnits="userSpaceOnUse"><stop offset="0.13" stop-color="#1a1b1b" stop-opacity="0.7"/><stop offset="0.83" stop-color="#1a1b1b"/></linearGradient><linearGradient id="linear-gradient-6" x1="482.35" y1="2419.9" x2="77.05" y2="2017.04" gradientUnits="userSpaceOnUse"><stop offset="0.03" stop-color="#1a1b1b" stop-opacity="0.7"/><stop offset="0.93" stop-color="#1a1b1b"/></linearGradient><linearGradient id="linear-gradient-7" x1="348.09" y1="1990.26" x2="430.64" y2="1860.08" xlink:href="#linear-gradient-6"/><clipPath id="clip-path"><polygon class="cls-1" points="0 1027.13 982.63 1634.58 0 1634.58 0 1027.13"/></clipPath><clipPath id="clip-path-2"><path class="cls-1" d="M1241.89,463.29,0,679.45.11,44.24C908.2,437.4,1241.89,463.29,1241.89,463.29Z"/></clipPath><clipPath id="clip-path-3"><path class="cls-1" d="M1242,1623s-435.57-232.75-825.66-488.45L1242,731.3Z"/></clipPath></defs><g id="Layer_2" data-name="Layer 2"><g id="Layer_1-2" data-name="Layer 1"><rect class="cls-2" width="1242" height="2208"/><path class="cls-3" d="M.11,44.24V0H1241.89V463.29C945.71,394.53,545.53,289.63.11,44.24Z"/><path class="cls-4" d="M1242,0V388.87S734.19,290.69,76.21,0Z"/><path class="cls-5" d="M0,917.13s607.25,427.15,1242,742.66V2208H0Z"/><path class="cls-6" d="M0,2145.18s626.66-303.37,1242-436.85V2208H0Z"/><path class="cls-7" d="M71.3,2208S746.76,1886.35,1242,1769v439.28H242.4Z"/><path class="cls-8" d="M0,1763.48s367.18,320.6,550,450.32H0Z"/><path class="cls-9" d="M.11,1634.58s533,424.43,779.76,579.22H598.66S165.51,1881.59.11,1726.8Z"/></g></g></svg>